M48
; DRILL file {KiCad 9.0.1} date 2025-09-04T16:26:12-0400
; FORMAT={-:-/ absolute / metric / decimal}
; #@! TF.CreationDate,2025-09-04T16:26:12-04:00
; #@! TF.GenerationSoftware,Kicad,Pcbnew,9.0.1
; #@! TF.FileFunction,Plated,1,2,PTH
FMAT,2
METRIC
; #@! TA.AperFunction,Plated,PTH,ComponentDrill
T1C0.800
; #@! TA.AperFunction,Plated,PTH,ComponentDrill
T2C1.000
%
G90
G05
T1
X117.5Y-92.0
X120.0Y-92.0
T2
X108.37Y-46.23
X108.37Y-48.77
X110.91Y-46.23
X110.91Y-48.77
X111.22Y-63.0
X113.45Y-46.23
X113.45Y-48.77
X113.76Y-63.0
X115.99Y-46.23
X115.99Y-48.77
X116.3Y-63.0
X118.53Y-46.23
X118.53Y-48.77
X118.84Y-63.0
X121.07Y-46.23
X121.07Y-48.77
X121.38Y-63.0
X123.61Y-46.23
X123.61Y-48.77
X123.92Y-63.0
X126.15Y-46.23
X126.15Y-48.77
X126.46Y-63.0
X128.69Y-46.23
X128.69Y-48.77
X129.0Y-63.0
X131.23Y-46.23
X131.23Y-48.77
X133.77Y-46.23
X133.77Y-48.77
X136.31Y-46.23
X136.31Y-48.77
X137.38Y-63.0
X138.85Y-46.23
X138.85Y-48.77
X139.92Y-63.0
X141.39Y-46.23
X141.39Y-48.77
X142.46Y-63.0
X143.93Y-46.23
X143.93Y-48.77
X145.0Y-63.0
X146.47Y-46.23
X146.47Y-48.77
X149.01Y-46.23
X149.01Y-48.77
X151.55Y-46.23
X151.55Y-48.77
X151.84Y-63.0
X154.09Y-46.23
X154.09Y-48.77
X154.38Y-63.0
X156.63Y-46.23
X156.63Y-48.77
X156.92Y-63.0
X159.46Y-63.0
M30
