G04 #@! TF.GenerationSoftware,KiCad,Pcbnew,9.0.1*
G04 #@! TF.CreationDate,2025-09-04T16:22:38-04:00*
G04 #@! TF.ProjectId,SensorBoxPython,53656e73-6f72-4426-9f78-507974686f6e,rev?*
G04 #@! TF.SameCoordinates,Original*
G04 #@! TF.FileFunction,Legend,Top*
G04 #@! TF.FilePolarity,Positive*
%FSLAX46Y46*%
G04 Gerber Fmt 4.6, Leading zero omitted, Abs format (unit mm)*
G04 Created by KiCad (PCBNEW 9.0.1) date 2025-09-04 16:22:38*
%MOMM*%
%LPD*%
G01*
G04 APERTURE LIST*
%ADD10C,0.200000*%
%ADD11C,0.100000*%
%ADD12C,0.150000*%
%ADD13C,0.120000*%
G04 APERTURE END LIST*
D10*
X121619046Y-70599712D02*
X121904760Y-70694950D01*
X121904760Y-70694950D02*
X122380951Y-70694950D01*
X122380951Y-70694950D02*
X122571427Y-70599712D01*
X122571427Y-70599712D02*
X122666665Y-70504473D01*
X122666665Y-70504473D02*
X122761903Y-70313997D01*
X122761903Y-70313997D02*
X122761903Y-70123521D01*
X122761903Y-70123521D02*
X122666665Y-69933045D01*
X122666665Y-69933045D02*
X122571427Y-69837807D01*
X122571427Y-69837807D02*
X122380951Y-69742569D01*
X122380951Y-69742569D02*
X121999998Y-69647331D01*
X121999998Y-69647331D02*
X121809522Y-69552092D01*
X121809522Y-69552092D02*
X121714284Y-69456854D01*
X121714284Y-69456854D02*
X121619046Y-69266378D01*
X121619046Y-69266378D02*
X121619046Y-69075902D01*
X121619046Y-69075902D02*
X121714284Y-68885426D01*
X121714284Y-68885426D02*
X121809522Y-68790188D01*
X121809522Y-68790188D02*
X121999998Y-68694950D01*
X121999998Y-68694950D02*
X122476189Y-68694950D01*
X122476189Y-68694950D02*
X122761903Y-68790188D01*
X124380951Y-70599712D02*
X124190475Y-70694950D01*
X124190475Y-70694950D02*
X123809522Y-70694950D01*
X123809522Y-70694950D02*
X123619046Y-70599712D01*
X123619046Y-70599712D02*
X123523808Y-70409235D01*
X123523808Y-70409235D02*
X123523808Y-69647331D01*
X123523808Y-69647331D02*
X123619046Y-69456854D01*
X123619046Y-69456854D02*
X123809522Y-69361616D01*
X123809522Y-69361616D02*
X124190475Y-69361616D01*
X124190475Y-69361616D02*
X124380951Y-69456854D01*
X124380951Y-69456854D02*
X124476189Y-69647331D01*
X124476189Y-69647331D02*
X124476189Y-69837807D01*
X124476189Y-69837807D02*
X123523808Y-70028283D01*
X125333332Y-69361616D02*
X125333332Y-70694950D01*
X125333332Y-69552092D02*
X125428570Y-69456854D01*
X125428570Y-69456854D02*
X125619046Y-69361616D01*
X125619046Y-69361616D02*
X125904761Y-69361616D01*
X125904761Y-69361616D02*
X126095237Y-69456854D01*
X126095237Y-69456854D02*
X126190475Y-69647331D01*
X126190475Y-69647331D02*
X126190475Y-70694950D01*
X127047618Y-70599712D02*
X127238094Y-70694950D01*
X127238094Y-70694950D02*
X127619046Y-70694950D01*
X127619046Y-70694950D02*
X127809523Y-70599712D01*
X127809523Y-70599712D02*
X127904761Y-70409235D01*
X127904761Y-70409235D02*
X127904761Y-70313997D01*
X127904761Y-70313997D02*
X127809523Y-70123521D01*
X127809523Y-70123521D02*
X127619046Y-70028283D01*
X127619046Y-70028283D02*
X127333332Y-70028283D01*
X127333332Y-70028283D02*
X127142856Y-69933045D01*
X127142856Y-69933045D02*
X127047618Y-69742569D01*
X127047618Y-69742569D02*
X127047618Y-69647331D01*
X127047618Y-69647331D02*
X127142856Y-69456854D01*
X127142856Y-69456854D02*
X127333332Y-69361616D01*
X127333332Y-69361616D02*
X127619046Y-69361616D01*
X127619046Y-69361616D02*
X127809523Y-69456854D01*
X129047618Y-70694950D02*
X128857142Y-70599712D01*
X128857142Y-70599712D02*
X128761904Y-70504473D01*
X128761904Y-70504473D02*
X128666666Y-70313997D01*
X128666666Y-70313997D02*
X128666666Y-69742569D01*
X128666666Y-69742569D02*
X128761904Y-69552092D01*
X128761904Y-69552092D02*
X128857142Y-69456854D01*
X128857142Y-69456854D02*
X129047618Y-69361616D01*
X129047618Y-69361616D02*
X129333333Y-69361616D01*
X129333333Y-69361616D02*
X129523809Y-69456854D01*
X129523809Y-69456854D02*
X129619047Y-69552092D01*
X129619047Y-69552092D02*
X129714285Y-69742569D01*
X129714285Y-69742569D02*
X129714285Y-70313997D01*
X129714285Y-70313997D02*
X129619047Y-70504473D01*
X129619047Y-70504473D02*
X129523809Y-70599712D01*
X129523809Y-70599712D02*
X129333333Y-70694950D01*
X129333333Y-70694950D02*
X129047618Y-70694950D01*
X130571428Y-70694950D02*
X130571428Y-69361616D01*
X130571428Y-69742569D02*
X130666666Y-69552092D01*
X130666666Y-69552092D02*
X130761904Y-69456854D01*
X130761904Y-69456854D02*
X130952380Y-69361616D01*
X130952380Y-69361616D02*
X131142857Y-69361616D01*
X132476190Y-69647331D02*
X132761904Y-69742569D01*
X132761904Y-69742569D02*
X132857142Y-69837807D01*
X132857142Y-69837807D02*
X132952380Y-70028283D01*
X132952380Y-70028283D02*
X132952380Y-70313997D01*
X132952380Y-70313997D02*
X132857142Y-70504473D01*
X132857142Y-70504473D02*
X132761904Y-70599712D01*
X132761904Y-70599712D02*
X132571428Y-70694950D01*
X132571428Y-70694950D02*
X131809523Y-70694950D01*
X131809523Y-70694950D02*
X131809523Y-68694950D01*
X131809523Y-68694950D02*
X132476190Y-68694950D01*
X132476190Y-68694950D02*
X132666666Y-68790188D01*
X132666666Y-68790188D02*
X132761904Y-68885426D01*
X132761904Y-68885426D02*
X132857142Y-69075902D01*
X132857142Y-69075902D02*
X132857142Y-69266378D01*
X132857142Y-69266378D02*
X132761904Y-69456854D01*
X132761904Y-69456854D02*
X132666666Y-69552092D01*
X132666666Y-69552092D02*
X132476190Y-69647331D01*
X132476190Y-69647331D02*
X131809523Y-69647331D01*
X134095237Y-70694950D02*
X133904761Y-70599712D01*
X133904761Y-70599712D02*
X133809523Y-70504473D01*
X133809523Y-70504473D02*
X133714285Y-70313997D01*
X133714285Y-70313997D02*
X133714285Y-69742569D01*
X133714285Y-69742569D02*
X133809523Y-69552092D01*
X133809523Y-69552092D02*
X133904761Y-69456854D01*
X133904761Y-69456854D02*
X134095237Y-69361616D01*
X134095237Y-69361616D02*
X134380952Y-69361616D01*
X134380952Y-69361616D02*
X134571428Y-69456854D01*
X134571428Y-69456854D02*
X134666666Y-69552092D01*
X134666666Y-69552092D02*
X134761904Y-69742569D01*
X134761904Y-69742569D02*
X134761904Y-70313997D01*
X134761904Y-70313997D02*
X134666666Y-70504473D01*
X134666666Y-70504473D02*
X134571428Y-70599712D01*
X134571428Y-70599712D02*
X134380952Y-70694950D01*
X134380952Y-70694950D02*
X134095237Y-70694950D01*
X135428571Y-70694950D02*
X136476190Y-69361616D01*
X135428571Y-69361616D02*
X136476190Y-70694950D01*
X138476191Y-68694950D02*
X139142857Y-70694950D01*
X139142857Y-70694950D02*
X139809524Y-68694950D01*
X141523810Y-70694950D02*
X140380953Y-70694950D01*
X140952381Y-70694950D02*
X140952381Y-68694950D01*
X140952381Y-68694950D02*
X140761905Y-68980664D01*
X140761905Y-68980664D02*
X140571429Y-69171140D01*
X140571429Y-69171140D02*
X140380953Y-69266378D01*
X142380953Y-70504473D02*
X142476191Y-70599712D01*
X142476191Y-70599712D02*
X142380953Y-70694950D01*
X142380953Y-70694950D02*
X142285715Y-70599712D01*
X142285715Y-70599712D02*
X142380953Y-70504473D01*
X142380953Y-70504473D02*
X142380953Y-70694950D01*
X143714286Y-68694950D02*
X143904763Y-68694950D01*
X143904763Y-68694950D02*
X144095239Y-68790188D01*
X144095239Y-68790188D02*
X144190477Y-68885426D01*
X144190477Y-68885426D02*
X144285715Y-69075902D01*
X144285715Y-69075902D02*
X144380953Y-69456854D01*
X144380953Y-69456854D02*
X144380953Y-69933045D01*
X144380953Y-69933045D02*
X144285715Y-70313997D01*
X144285715Y-70313997D02*
X144190477Y-70504473D01*
X144190477Y-70504473D02*
X144095239Y-70599712D01*
X144095239Y-70599712D02*
X143904763Y-70694950D01*
X143904763Y-70694950D02*
X143714286Y-70694950D01*
X143714286Y-70694950D02*
X143523810Y-70599712D01*
X143523810Y-70599712D02*
X143428572Y-70504473D01*
X143428572Y-70504473D02*
X143333334Y-70313997D01*
X143333334Y-70313997D02*
X143238096Y-69933045D01*
X143238096Y-69933045D02*
X143238096Y-69456854D01*
X143238096Y-69456854D02*
X143333334Y-69075902D01*
X143333334Y-69075902D02*
X143428572Y-68885426D01*
X143428572Y-68885426D02*
X143523810Y-68790188D01*
X143523810Y-68790188D02*
X143714286Y-68694950D01*
X121999999Y-75134726D02*
X121999999Y-76563297D01*
X121999999Y-76563297D02*
X121904760Y-76849011D01*
X121904760Y-76849011D02*
X121714284Y-77039488D01*
X121714284Y-77039488D02*
X121428570Y-77134726D01*
X121428570Y-77134726D02*
X121238094Y-77134726D01*
X123238094Y-77134726D02*
X123047618Y-77039488D01*
X123047618Y-77039488D02*
X122952380Y-76944249D01*
X122952380Y-76944249D02*
X122857142Y-76753773D01*
X122857142Y-76753773D02*
X122857142Y-76182345D01*
X122857142Y-76182345D02*
X122952380Y-75991868D01*
X122952380Y-75991868D02*
X123047618Y-75896630D01*
X123047618Y-75896630D02*
X123238094Y-75801392D01*
X123238094Y-75801392D02*
X123523809Y-75801392D01*
X123523809Y-75801392D02*
X123714285Y-75896630D01*
X123714285Y-75896630D02*
X123809523Y-75991868D01*
X123809523Y-75991868D02*
X123904761Y-76182345D01*
X123904761Y-76182345D02*
X123904761Y-76753773D01*
X123904761Y-76753773D02*
X123809523Y-76944249D01*
X123809523Y-76944249D02*
X123714285Y-77039488D01*
X123714285Y-77039488D02*
X123523809Y-77134726D01*
X123523809Y-77134726D02*
X123238094Y-77134726D01*
X124761904Y-75801392D02*
X124761904Y-77134726D01*
X124761904Y-75991868D02*
X124857142Y-75896630D01*
X124857142Y-75896630D02*
X125047618Y-75801392D01*
X125047618Y-75801392D02*
X125333333Y-75801392D01*
X125333333Y-75801392D02*
X125523809Y-75896630D01*
X125523809Y-75896630D02*
X125619047Y-76087107D01*
X125619047Y-76087107D02*
X125619047Y-77134726D01*
X127428571Y-77134726D02*
X127428571Y-76087107D01*
X127428571Y-76087107D02*
X127333333Y-75896630D01*
X127333333Y-75896630D02*
X127142857Y-75801392D01*
X127142857Y-75801392D02*
X126761904Y-75801392D01*
X126761904Y-75801392D02*
X126571428Y-75896630D01*
X127428571Y-77039488D02*
X127238095Y-77134726D01*
X127238095Y-77134726D02*
X126761904Y-77134726D01*
X126761904Y-77134726D02*
X126571428Y-77039488D01*
X126571428Y-77039488D02*
X126476190Y-76849011D01*
X126476190Y-76849011D02*
X126476190Y-76658535D01*
X126476190Y-76658535D02*
X126571428Y-76468059D01*
X126571428Y-76468059D02*
X126761904Y-76372821D01*
X126761904Y-76372821D02*
X127238095Y-76372821D01*
X127238095Y-76372821D02*
X127428571Y-76277583D01*
X128285714Y-77039488D02*
X128476190Y-77134726D01*
X128476190Y-77134726D02*
X128857142Y-77134726D01*
X128857142Y-77134726D02*
X129047619Y-77039488D01*
X129047619Y-77039488D02*
X129142857Y-76849011D01*
X129142857Y-76849011D02*
X129142857Y-76753773D01*
X129142857Y-76753773D02*
X129047619Y-76563297D01*
X129047619Y-76563297D02*
X128857142Y-76468059D01*
X128857142Y-76468059D02*
X128571428Y-76468059D01*
X128571428Y-76468059D02*
X128380952Y-76372821D01*
X128380952Y-76372821D02*
X128285714Y-76182345D01*
X128285714Y-76182345D02*
X128285714Y-76087107D01*
X128285714Y-76087107D02*
X128380952Y-75896630D01*
X128380952Y-75896630D02*
X128571428Y-75801392D01*
X128571428Y-75801392D02*
X128857142Y-75801392D01*
X128857142Y-75801392D02*
X129047619Y-75896630D01*
X132190477Y-76087107D02*
X132476191Y-76182345D01*
X132476191Y-76182345D02*
X132571429Y-76277583D01*
X132571429Y-76277583D02*
X132666667Y-76468059D01*
X132666667Y-76468059D02*
X132666667Y-76753773D01*
X132666667Y-76753773D02*
X132571429Y-76944249D01*
X132571429Y-76944249D02*
X132476191Y-77039488D01*
X132476191Y-77039488D02*
X132285715Y-77134726D01*
X132285715Y-77134726D02*
X131523810Y-77134726D01*
X131523810Y-77134726D02*
X131523810Y-75134726D01*
X131523810Y-75134726D02*
X132190477Y-75134726D01*
X132190477Y-75134726D02*
X132380953Y-75229964D01*
X132380953Y-75229964D02*
X132476191Y-75325202D01*
X132476191Y-75325202D02*
X132571429Y-75515678D01*
X132571429Y-75515678D02*
X132571429Y-75706154D01*
X132571429Y-75706154D02*
X132476191Y-75896630D01*
X132476191Y-75896630D02*
X132380953Y-75991868D01*
X132380953Y-75991868D02*
X132190477Y-76087107D01*
X132190477Y-76087107D02*
X131523810Y-76087107D01*
X133809524Y-77134726D02*
X133619048Y-77039488D01*
X133619048Y-77039488D02*
X133523810Y-76944249D01*
X133523810Y-76944249D02*
X133428572Y-76753773D01*
X133428572Y-76753773D02*
X133428572Y-76182345D01*
X133428572Y-76182345D02*
X133523810Y-75991868D01*
X133523810Y-75991868D02*
X133619048Y-75896630D01*
X133619048Y-75896630D02*
X133809524Y-75801392D01*
X133809524Y-75801392D02*
X134095239Y-75801392D01*
X134095239Y-75801392D02*
X134285715Y-75896630D01*
X134285715Y-75896630D02*
X134380953Y-75991868D01*
X134380953Y-75991868D02*
X134476191Y-76182345D01*
X134476191Y-76182345D02*
X134476191Y-76753773D01*
X134476191Y-76753773D02*
X134380953Y-76944249D01*
X134380953Y-76944249D02*
X134285715Y-77039488D01*
X134285715Y-77039488D02*
X134095239Y-77134726D01*
X134095239Y-77134726D02*
X133809524Y-77134726D01*
X136190477Y-75801392D02*
X136190477Y-77134726D01*
X135333334Y-75801392D02*
X135333334Y-76849011D01*
X135333334Y-76849011D02*
X135428572Y-77039488D01*
X135428572Y-77039488D02*
X135619048Y-77134726D01*
X135619048Y-77134726D02*
X135904763Y-77134726D01*
X135904763Y-77134726D02*
X136095239Y-77039488D01*
X136095239Y-77039488D02*
X136190477Y-76944249D01*
X138000001Y-77039488D02*
X137809525Y-77134726D01*
X137809525Y-77134726D02*
X137428572Y-77134726D01*
X137428572Y-77134726D02*
X137238096Y-77039488D01*
X137238096Y-77039488D02*
X137142858Y-76944249D01*
X137142858Y-76944249D02*
X137047620Y-76753773D01*
X137047620Y-76753773D02*
X137047620Y-76182345D01*
X137047620Y-76182345D02*
X137142858Y-75991868D01*
X137142858Y-75991868D02*
X137238096Y-75896630D01*
X137238096Y-75896630D02*
X137428572Y-75801392D01*
X137428572Y-75801392D02*
X137809525Y-75801392D01*
X137809525Y-75801392D02*
X138000001Y-75896630D01*
X138857144Y-77134726D02*
X138857144Y-75134726D01*
X139714287Y-77134726D02*
X139714287Y-76087107D01*
X139714287Y-76087107D02*
X139619049Y-75896630D01*
X139619049Y-75896630D02*
X139428573Y-75801392D01*
X139428573Y-75801392D02*
X139142858Y-75801392D01*
X139142858Y-75801392D02*
X138952382Y-75896630D01*
X138952382Y-75896630D02*
X138857144Y-75991868D01*
X141523811Y-77134726D02*
X141523811Y-76087107D01*
X141523811Y-76087107D02*
X141428573Y-75896630D01*
X141428573Y-75896630D02*
X141238097Y-75801392D01*
X141238097Y-75801392D02*
X140857144Y-75801392D01*
X140857144Y-75801392D02*
X140666668Y-75896630D01*
X141523811Y-77039488D02*
X141333335Y-77134726D01*
X141333335Y-77134726D02*
X140857144Y-77134726D01*
X140857144Y-77134726D02*
X140666668Y-77039488D01*
X140666668Y-77039488D02*
X140571430Y-76849011D01*
X140571430Y-76849011D02*
X140571430Y-76658535D01*
X140571430Y-76658535D02*
X140666668Y-76468059D01*
X140666668Y-76468059D02*
X140857144Y-76372821D01*
X140857144Y-76372821D02*
X141333335Y-76372821D01*
X141333335Y-76372821D02*
X141523811Y-76277583D01*
X142476192Y-77134726D02*
X142476192Y-75801392D01*
X142476192Y-76182345D02*
X142571430Y-75991868D01*
X142571430Y-75991868D02*
X142666668Y-75896630D01*
X142666668Y-75896630D02*
X142857144Y-75801392D01*
X142857144Y-75801392D02*
X143047621Y-75801392D01*
X144571430Y-77134726D02*
X144571430Y-75134726D01*
X144571430Y-77039488D02*
X144380954Y-77134726D01*
X144380954Y-77134726D02*
X144000001Y-77134726D01*
X144000001Y-77134726D02*
X143809525Y-77039488D01*
X143809525Y-77039488D02*
X143714287Y-76944249D01*
X143714287Y-76944249D02*
X143619049Y-76753773D01*
X143619049Y-76753773D02*
X143619049Y-76182345D01*
X143619049Y-76182345D02*
X143714287Y-75991868D01*
X143714287Y-75991868D02*
X143809525Y-75896630D01*
X143809525Y-75896630D02*
X144000001Y-75801392D01*
X144000001Y-75801392D02*
X144380954Y-75801392D01*
X144380954Y-75801392D02*
X144571430Y-75896630D01*
D11*
X115785714Y-59457419D02*
X115785714Y-58457419D01*
X115785714Y-58457419D02*
X116166666Y-58457419D01*
X116166666Y-58457419D02*
X116261904Y-58505038D01*
X116261904Y-58505038D02*
X116309523Y-58552657D01*
X116309523Y-58552657D02*
X116357142Y-58647895D01*
X116357142Y-58647895D02*
X116357142Y-58790752D01*
X116357142Y-58790752D02*
X116309523Y-58885990D01*
X116309523Y-58885990D02*
X116261904Y-58933609D01*
X116261904Y-58933609D02*
X116166666Y-58981228D01*
X116166666Y-58981228D02*
X115785714Y-58981228D01*
X116785714Y-59457419D02*
X116785714Y-58457419D01*
X116785714Y-58457419D02*
X117119047Y-59171704D01*
X117119047Y-59171704D02*
X117452380Y-58457419D01*
X117452380Y-58457419D02*
X117452380Y-59457419D01*
X117880952Y-59409800D02*
X118023809Y-59457419D01*
X118023809Y-59457419D02*
X118261904Y-59457419D01*
X118261904Y-59457419D02*
X118357142Y-59409800D01*
X118357142Y-59409800D02*
X118404761Y-59362180D01*
X118404761Y-59362180D02*
X118452380Y-59266942D01*
X118452380Y-59266942D02*
X118452380Y-59171704D01*
X118452380Y-59171704D02*
X118404761Y-59076466D01*
X118404761Y-59076466D02*
X118357142Y-59028847D01*
X118357142Y-59028847D02*
X118261904Y-58981228D01*
X118261904Y-58981228D02*
X118071428Y-58933609D01*
X118071428Y-58933609D02*
X117976190Y-58885990D01*
X117976190Y-58885990D02*
X117928571Y-58838371D01*
X117928571Y-58838371D02*
X117880952Y-58743133D01*
X117880952Y-58743133D02*
X117880952Y-58647895D01*
X117880952Y-58647895D02*
X117928571Y-58552657D01*
X117928571Y-58552657D02*
X117976190Y-58505038D01*
X117976190Y-58505038D02*
X118071428Y-58457419D01*
X118071428Y-58457419D02*
X118309523Y-58457419D01*
X118309523Y-58457419D02*
X118452380Y-58505038D01*
X119357142Y-58457419D02*
X118880952Y-58457419D01*
X118880952Y-58457419D02*
X118833333Y-58933609D01*
X118833333Y-58933609D02*
X118880952Y-58885990D01*
X118880952Y-58885990D02*
X118976190Y-58838371D01*
X118976190Y-58838371D02*
X119214285Y-58838371D01*
X119214285Y-58838371D02*
X119309523Y-58885990D01*
X119309523Y-58885990D02*
X119357142Y-58933609D01*
X119357142Y-58933609D02*
X119404761Y-59028847D01*
X119404761Y-59028847D02*
X119404761Y-59266942D01*
X119404761Y-59266942D02*
X119357142Y-59362180D01*
X119357142Y-59362180D02*
X119309523Y-59409800D01*
X119309523Y-59409800D02*
X119214285Y-59457419D01*
X119214285Y-59457419D02*
X118976190Y-59457419D01*
X118976190Y-59457419D02*
X118880952Y-59409800D01*
X118880952Y-59409800D02*
X118833333Y-59362180D01*
X120023809Y-58457419D02*
X120119047Y-58457419D01*
X120119047Y-58457419D02*
X120214285Y-58505038D01*
X120214285Y-58505038D02*
X120261904Y-58552657D01*
X120261904Y-58552657D02*
X120309523Y-58647895D01*
X120309523Y-58647895D02*
X120357142Y-58838371D01*
X120357142Y-58838371D02*
X120357142Y-59076466D01*
X120357142Y-59076466D02*
X120309523Y-59266942D01*
X120309523Y-59266942D02*
X120261904Y-59362180D01*
X120261904Y-59362180D02*
X120214285Y-59409800D01*
X120214285Y-59409800D02*
X120119047Y-59457419D01*
X120119047Y-59457419D02*
X120023809Y-59457419D01*
X120023809Y-59457419D02*
X119928571Y-59409800D01*
X119928571Y-59409800D02*
X119880952Y-59362180D01*
X119880952Y-59362180D02*
X119833333Y-59266942D01*
X119833333Y-59266942D02*
X119785714Y-59076466D01*
X119785714Y-59076466D02*
X119785714Y-58838371D01*
X119785714Y-58838371D02*
X119833333Y-58647895D01*
X119833333Y-58647895D02*
X119880952Y-58552657D01*
X119880952Y-58552657D02*
X119928571Y-58505038D01*
X119928571Y-58505038D02*
X120023809Y-58457419D01*
X120976190Y-58457419D02*
X121071428Y-58457419D01*
X121071428Y-58457419D02*
X121166666Y-58505038D01*
X121166666Y-58505038D02*
X121214285Y-58552657D01*
X121214285Y-58552657D02*
X121261904Y-58647895D01*
X121261904Y-58647895D02*
X121309523Y-58838371D01*
X121309523Y-58838371D02*
X121309523Y-59076466D01*
X121309523Y-59076466D02*
X121261904Y-59266942D01*
X121261904Y-59266942D02*
X121214285Y-59362180D01*
X121214285Y-59362180D02*
X121166666Y-59409800D01*
X121166666Y-59409800D02*
X121071428Y-59457419D01*
X121071428Y-59457419D02*
X120976190Y-59457419D01*
X120976190Y-59457419D02*
X120880952Y-59409800D01*
X120880952Y-59409800D02*
X120833333Y-59362180D01*
X120833333Y-59362180D02*
X120785714Y-59266942D01*
X120785714Y-59266942D02*
X120738095Y-59076466D01*
X120738095Y-59076466D02*
X120738095Y-58838371D01*
X120738095Y-58838371D02*
X120785714Y-58647895D01*
X120785714Y-58647895D02*
X120833333Y-58552657D01*
X120833333Y-58552657D02*
X120880952Y-58505038D01*
X120880952Y-58505038D02*
X120976190Y-58457419D01*
X121642857Y-58457419D02*
X122261904Y-58457419D01*
X122261904Y-58457419D02*
X121928571Y-58838371D01*
X121928571Y-58838371D02*
X122071428Y-58838371D01*
X122071428Y-58838371D02*
X122166666Y-58885990D01*
X122166666Y-58885990D02*
X122214285Y-58933609D01*
X122214285Y-58933609D02*
X122261904Y-59028847D01*
X122261904Y-59028847D02*
X122261904Y-59266942D01*
X122261904Y-59266942D02*
X122214285Y-59362180D01*
X122214285Y-59362180D02*
X122166666Y-59409800D01*
X122166666Y-59409800D02*
X122071428Y-59457419D01*
X122071428Y-59457419D02*
X121785714Y-59457419D01*
X121785714Y-59457419D02*
X121690476Y-59409800D01*
X121690476Y-59409800D02*
X121642857Y-59362180D01*
X135285714Y-59171704D02*
X135761904Y-59171704D01*
X135190476Y-59457419D02*
X135523809Y-58457419D01*
X135523809Y-58457419D02*
X135857142Y-59457419D01*
X136190476Y-59457419D02*
X136190476Y-58457419D01*
X136190476Y-58933609D02*
X136761904Y-58933609D01*
X136761904Y-59457419D02*
X136761904Y-58457419D01*
X137095238Y-58457419D02*
X137666666Y-58457419D01*
X137380952Y-59457419D02*
X137380952Y-58457419D01*
X137952381Y-58552657D02*
X138000000Y-58505038D01*
X138000000Y-58505038D02*
X138095238Y-58457419D01*
X138095238Y-58457419D02*
X138333333Y-58457419D01*
X138333333Y-58457419D02*
X138428571Y-58505038D01*
X138428571Y-58505038D02*
X138476190Y-58552657D01*
X138476190Y-58552657D02*
X138523809Y-58647895D01*
X138523809Y-58647895D02*
X138523809Y-58743133D01*
X138523809Y-58743133D02*
X138476190Y-58885990D01*
X138476190Y-58885990D02*
X137904762Y-59457419D01*
X137904762Y-59457419D02*
X138523809Y-59457419D01*
X139142857Y-58457419D02*
X139238095Y-58457419D01*
X139238095Y-58457419D02*
X139333333Y-58505038D01*
X139333333Y-58505038D02*
X139380952Y-58552657D01*
X139380952Y-58552657D02*
X139428571Y-58647895D01*
X139428571Y-58647895D02*
X139476190Y-58838371D01*
X139476190Y-58838371D02*
X139476190Y-59076466D01*
X139476190Y-59076466D02*
X139428571Y-59266942D01*
X139428571Y-59266942D02*
X139380952Y-59362180D01*
X139380952Y-59362180D02*
X139333333Y-59409800D01*
X139333333Y-59409800D02*
X139238095Y-59457419D01*
X139238095Y-59457419D02*
X139142857Y-59457419D01*
X139142857Y-59457419D02*
X139047619Y-59409800D01*
X139047619Y-59409800D02*
X139000000Y-59362180D01*
X139000000Y-59362180D02*
X138952381Y-59266942D01*
X138952381Y-59266942D02*
X138904762Y-59076466D01*
X138904762Y-59076466D02*
X138904762Y-58838371D01*
X138904762Y-58838371D02*
X138952381Y-58647895D01*
X138952381Y-58647895D02*
X139000000Y-58552657D01*
X139000000Y-58552657D02*
X139047619Y-58505038D01*
X139047619Y-58505038D02*
X139142857Y-58457419D01*
X139904762Y-59076466D02*
X140666667Y-59076466D01*
X140285714Y-59457419D02*
X140285714Y-58695514D01*
X141476190Y-58933609D02*
X141619047Y-58981228D01*
X141619047Y-58981228D02*
X141666666Y-59028847D01*
X141666666Y-59028847D02*
X141714285Y-59124085D01*
X141714285Y-59124085D02*
X141714285Y-59266942D01*
X141714285Y-59266942D02*
X141666666Y-59362180D01*
X141666666Y-59362180D02*
X141619047Y-59409800D01*
X141619047Y-59409800D02*
X141523809Y-59457419D01*
X141523809Y-59457419D02*
X141142857Y-59457419D01*
X141142857Y-59457419D02*
X141142857Y-58457419D01*
X141142857Y-58457419D02*
X141476190Y-58457419D01*
X141476190Y-58457419D02*
X141571428Y-58505038D01*
X141571428Y-58505038D02*
X141619047Y-58552657D01*
X141619047Y-58552657D02*
X141666666Y-58647895D01*
X141666666Y-58647895D02*
X141666666Y-58743133D01*
X141666666Y-58743133D02*
X141619047Y-58838371D01*
X141619047Y-58838371D02*
X141571428Y-58885990D01*
X141571428Y-58885990D02*
X141476190Y-58933609D01*
X141476190Y-58933609D02*
X141142857Y-58933609D01*
X142142857Y-59457419D02*
X142142857Y-58457419D01*
X142142857Y-58457419D02*
X142476190Y-59171704D01*
X142476190Y-59171704D02*
X142809523Y-58457419D01*
X142809523Y-58457419D02*
X142809523Y-59457419D01*
X143285714Y-59457419D02*
X143285714Y-58457419D01*
X143285714Y-58457419D02*
X143666666Y-58457419D01*
X143666666Y-58457419D02*
X143761904Y-58505038D01*
X143761904Y-58505038D02*
X143809523Y-58552657D01*
X143809523Y-58552657D02*
X143857142Y-58647895D01*
X143857142Y-58647895D02*
X143857142Y-58790752D01*
X143857142Y-58790752D02*
X143809523Y-58885990D01*
X143809523Y-58885990D02*
X143761904Y-58933609D01*
X143761904Y-58933609D02*
X143666666Y-58981228D01*
X143666666Y-58981228D02*
X143285714Y-58981228D01*
X144238095Y-58552657D02*
X144285714Y-58505038D01*
X144285714Y-58505038D02*
X144380952Y-58457419D01*
X144380952Y-58457419D02*
X144619047Y-58457419D01*
X144619047Y-58457419D02*
X144714285Y-58505038D01*
X144714285Y-58505038D02*
X144761904Y-58552657D01*
X144761904Y-58552657D02*
X144809523Y-58647895D01*
X144809523Y-58647895D02*
X144809523Y-58743133D01*
X144809523Y-58743133D02*
X144761904Y-58885990D01*
X144761904Y-58885990D02*
X144190476Y-59457419D01*
X144190476Y-59457419D02*
X144809523Y-59457419D01*
X145380952Y-58885990D02*
X145285714Y-58838371D01*
X145285714Y-58838371D02*
X145238095Y-58790752D01*
X145238095Y-58790752D02*
X145190476Y-58695514D01*
X145190476Y-58695514D02*
X145190476Y-58647895D01*
X145190476Y-58647895D02*
X145238095Y-58552657D01*
X145238095Y-58552657D02*
X145285714Y-58505038D01*
X145285714Y-58505038D02*
X145380952Y-58457419D01*
X145380952Y-58457419D02*
X145571428Y-58457419D01*
X145571428Y-58457419D02*
X145666666Y-58505038D01*
X145666666Y-58505038D02*
X145714285Y-58552657D01*
X145714285Y-58552657D02*
X145761904Y-58647895D01*
X145761904Y-58647895D02*
X145761904Y-58695514D01*
X145761904Y-58695514D02*
X145714285Y-58790752D01*
X145714285Y-58790752D02*
X145666666Y-58838371D01*
X145666666Y-58838371D02*
X145571428Y-58885990D01*
X145571428Y-58885990D02*
X145380952Y-58885990D01*
X145380952Y-58885990D02*
X145285714Y-58933609D01*
X145285714Y-58933609D02*
X145238095Y-58981228D01*
X145238095Y-58981228D02*
X145190476Y-59076466D01*
X145190476Y-59076466D02*
X145190476Y-59266942D01*
X145190476Y-59266942D02*
X145238095Y-59362180D01*
X145238095Y-59362180D02*
X145285714Y-59409800D01*
X145285714Y-59409800D02*
X145380952Y-59457419D01*
X145380952Y-59457419D02*
X145571428Y-59457419D01*
X145571428Y-59457419D02*
X145666666Y-59409800D01*
X145666666Y-59409800D02*
X145714285Y-59362180D01*
X145714285Y-59362180D02*
X145761904Y-59266942D01*
X145761904Y-59266942D02*
X145761904Y-59076466D01*
X145761904Y-59076466D02*
X145714285Y-58981228D01*
X145714285Y-58981228D02*
X145666666Y-58933609D01*
X145666666Y-58933609D02*
X145571428Y-58885990D01*
X146380952Y-58457419D02*
X146476190Y-58457419D01*
X146476190Y-58457419D02*
X146571428Y-58505038D01*
X146571428Y-58505038D02*
X146619047Y-58552657D01*
X146619047Y-58552657D02*
X146666666Y-58647895D01*
X146666666Y-58647895D02*
X146714285Y-58838371D01*
X146714285Y-58838371D02*
X146714285Y-59076466D01*
X146714285Y-59076466D02*
X146666666Y-59266942D01*
X146666666Y-59266942D02*
X146619047Y-59362180D01*
X146619047Y-59362180D02*
X146571428Y-59409800D01*
X146571428Y-59409800D02*
X146476190Y-59457419D01*
X146476190Y-59457419D02*
X146380952Y-59457419D01*
X146380952Y-59457419D02*
X146285714Y-59409800D01*
X146285714Y-59409800D02*
X146238095Y-59362180D01*
X146238095Y-59362180D02*
X146190476Y-59266942D01*
X146190476Y-59266942D02*
X146142857Y-59076466D01*
X146142857Y-59076466D02*
X146142857Y-58838371D01*
X146142857Y-58838371D02*
X146190476Y-58647895D01*
X146190476Y-58647895D02*
X146238095Y-58552657D01*
X146238095Y-58552657D02*
X146285714Y-58505038D01*
X146285714Y-58505038D02*
X146380952Y-58457419D01*
D12*
X118583333Y-88609580D02*
X118535714Y-88657200D01*
X118535714Y-88657200D02*
X118392857Y-88704819D01*
X118392857Y-88704819D02*
X118297619Y-88704819D01*
X118297619Y-88704819D02*
X118154762Y-88657200D01*
X118154762Y-88657200D02*
X118059524Y-88561961D01*
X118059524Y-88561961D02*
X118011905Y-88466723D01*
X118011905Y-88466723D02*
X117964286Y-88276247D01*
X117964286Y-88276247D02*
X117964286Y-88133390D01*
X117964286Y-88133390D02*
X118011905Y-87942914D01*
X118011905Y-87942914D02*
X118059524Y-87847676D01*
X118059524Y-87847676D02*
X118154762Y-87752438D01*
X118154762Y-87752438D02*
X118297619Y-87704819D01*
X118297619Y-87704819D02*
X118392857Y-87704819D01*
X118392857Y-87704819D02*
X118535714Y-87752438D01*
X118535714Y-87752438D02*
X118583333Y-87800057D01*
X118964286Y-87800057D02*
X119011905Y-87752438D01*
X119011905Y-87752438D02*
X119107143Y-87704819D01*
X119107143Y-87704819D02*
X119345238Y-87704819D01*
X119345238Y-87704819D02*
X119440476Y-87752438D01*
X119440476Y-87752438D02*
X119488095Y-87800057D01*
X119488095Y-87800057D02*
X119535714Y-87895295D01*
X119535714Y-87895295D02*
X119535714Y-87990533D01*
X119535714Y-87990533D02*
X119488095Y-88133390D01*
X119488095Y-88133390D02*
X118916667Y-88704819D01*
X118916667Y-88704819D02*
X119535714Y-88704819D01*
D11*
X153761905Y-59409800D02*
X153904762Y-59457419D01*
X153904762Y-59457419D02*
X154142857Y-59457419D01*
X154142857Y-59457419D02*
X154238095Y-59409800D01*
X154238095Y-59409800D02*
X154285714Y-59362180D01*
X154285714Y-59362180D02*
X154333333Y-59266942D01*
X154333333Y-59266942D02*
X154333333Y-59171704D01*
X154333333Y-59171704D02*
X154285714Y-59076466D01*
X154285714Y-59076466D02*
X154238095Y-59028847D01*
X154238095Y-59028847D02*
X154142857Y-58981228D01*
X154142857Y-58981228D02*
X153952381Y-58933609D01*
X153952381Y-58933609D02*
X153857143Y-58885990D01*
X153857143Y-58885990D02*
X153809524Y-58838371D01*
X153809524Y-58838371D02*
X153761905Y-58743133D01*
X153761905Y-58743133D02*
X153761905Y-58647895D01*
X153761905Y-58647895D02*
X153809524Y-58552657D01*
X153809524Y-58552657D02*
X153857143Y-58505038D01*
X153857143Y-58505038D02*
X153952381Y-58457419D01*
X153952381Y-58457419D02*
X154190476Y-58457419D01*
X154190476Y-58457419D02*
X154333333Y-58505038D01*
X155285714Y-58505038D02*
X155190476Y-58457419D01*
X155190476Y-58457419D02*
X155047619Y-58457419D01*
X155047619Y-58457419D02*
X154904762Y-58505038D01*
X154904762Y-58505038D02*
X154809524Y-58600276D01*
X154809524Y-58600276D02*
X154761905Y-58695514D01*
X154761905Y-58695514D02*
X154714286Y-58885990D01*
X154714286Y-58885990D02*
X154714286Y-59028847D01*
X154714286Y-59028847D02*
X154761905Y-59219323D01*
X154761905Y-59219323D02*
X154809524Y-59314561D01*
X154809524Y-59314561D02*
X154904762Y-59409800D01*
X154904762Y-59409800D02*
X155047619Y-59457419D01*
X155047619Y-59457419D02*
X155142857Y-59457419D01*
X155142857Y-59457419D02*
X155285714Y-59409800D01*
X155285714Y-59409800D02*
X155333333Y-59362180D01*
X155333333Y-59362180D02*
X155333333Y-59028847D01*
X155333333Y-59028847D02*
X155142857Y-59028847D01*
X155761905Y-59457419D02*
X155761905Y-58457419D01*
X155761905Y-58457419D02*
X156142857Y-58457419D01*
X156142857Y-58457419D02*
X156238095Y-58505038D01*
X156238095Y-58505038D02*
X156285714Y-58552657D01*
X156285714Y-58552657D02*
X156333333Y-58647895D01*
X156333333Y-58647895D02*
X156333333Y-58790752D01*
X156333333Y-58790752D02*
X156285714Y-58885990D01*
X156285714Y-58885990D02*
X156238095Y-58933609D01*
X156238095Y-58933609D02*
X156142857Y-58981228D01*
X156142857Y-58981228D02*
X155761905Y-58981228D01*
X156666667Y-58457419D02*
X157285714Y-58457419D01*
X157285714Y-58457419D02*
X156952381Y-58838371D01*
X156952381Y-58838371D02*
X157095238Y-58838371D01*
X157095238Y-58838371D02*
X157190476Y-58885990D01*
X157190476Y-58885990D02*
X157238095Y-58933609D01*
X157238095Y-58933609D02*
X157285714Y-59028847D01*
X157285714Y-59028847D02*
X157285714Y-59266942D01*
X157285714Y-59266942D02*
X157238095Y-59362180D01*
X157238095Y-59362180D02*
X157190476Y-59409800D01*
X157190476Y-59409800D02*
X157095238Y-59457419D01*
X157095238Y-59457419D02*
X156809524Y-59457419D01*
X156809524Y-59457419D02*
X156714286Y-59409800D01*
X156714286Y-59409800D02*
X156666667Y-59362180D01*
X157904762Y-58457419D02*
X158000000Y-58457419D01*
X158000000Y-58457419D02*
X158095238Y-58505038D01*
X158095238Y-58505038D02*
X158142857Y-58552657D01*
X158142857Y-58552657D02*
X158190476Y-58647895D01*
X158190476Y-58647895D02*
X158238095Y-58838371D01*
X158238095Y-58838371D02*
X158238095Y-59076466D01*
X158238095Y-59076466D02*
X158190476Y-59266942D01*
X158190476Y-59266942D02*
X158142857Y-59362180D01*
X158142857Y-59362180D02*
X158095238Y-59409800D01*
X158095238Y-59409800D02*
X158000000Y-59457419D01*
X158000000Y-59457419D02*
X157904762Y-59457419D01*
X157904762Y-59457419D02*
X157809524Y-59409800D01*
X157809524Y-59409800D02*
X157761905Y-59362180D01*
X157761905Y-59362180D02*
X157714286Y-59266942D01*
X157714286Y-59266942D02*
X157666667Y-59076466D01*
X157666667Y-59076466D02*
X157666667Y-58838371D01*
X157666667Y-58838371D02*
X157714286Y-58647895D01*
X157714286Y-58647895D02*
X157761905Y-58552657D01*
X157761905Y-58552657D02*
X157809524Y-58505038D01*
X157809524Y-58505038D02*
X157904762Y-58457419D01*
D13*
X115945225Y-90525000D02*
X116445225Y-90525000D01*
X116195225Y-90275000D02*
X116195225Y-90775000D01*
X118750000Y-89420000D02*
X118750000Y-94580000D01*
X118790000Y-89420000D02*
X118790000Y-94580000D01*
X118830000Y-89421000D02*
X118830000Y-94579000D01*
X118870000Y-89423000D02*
X118870000Y-94577000D01*
X118910000Y-89425000D02*
X118910000Y-94575000D01*
X118950000Y-89428000D02*
X118950000Y-94572000D01*
X118990000Y-89431000D02*
X118990000Y-90960000D01*
X118990000Y-93040000D02*
X118990000Y-94569000D01*
X119030000Y-89435000D02*
X119030000Y-90960000D01*
X119030000Y-93040000D02*
X119030000Y-94565000D01*
X119070000Y-89440000D02*
X119070000Y-90960000D01*
X119070000Y-93040000D02*
X119070000Y-94560000D01*
X119110000Y-89445000D02*
X119110000Y-90960000D01*
X119110000Y-93040000D02*
X119110000Y-94555000D01*
X119150000Y-89451000D02*
X119150000Y-90960000D01*
X119150000Y-93040000D02*
X119150000Y-94549000D01*
X119190000Y-89457000D02*
X119190000Y-90960000D01*
X119190000Y-93040000D02*
X119190000Y-94543000D01*
X119230000Y-89464000D02*
X119230000Y-90960000D01*
X119230000Y-93040000D02*
X119230000Y-94536000D01*
X119270000Y-89472000D02*
X119270000Y-90960000D01*
X119270000Y-93040000D02*
X119270000Y-94528000D01*
X119310000Y-89481000D02*
X119310000Y-90960000D01*
X119310000Y-93040000D02*
X119310000Y-94519000D01*
X119350000Y-89490000D02*
X119350000Y-90960000D01*
X119350000Y-93040000D02*
X119350000Y-94510000D01*
X119390000Y-89499000D02*
X119390000Y-90960000D01*
X119390000Y-93040000D02*
X119390000Y-94501000D01*
X119430000Y-89510000D02*
X119430000Y-90960000D01*
X119430000Y-93040000D02*
X119430000Y-94490000D01*
X119470000Y-89521000D02*
X119470000Y-90960000D01*
X119470000Y-93040000D02*
X119470000Y-94479000D01*
X119510000Y-89533000D02*
X119510000Y-90960000D01*
X119510000Y-93040000D02*
X119510000Y-94467000D01*
X119550000Y-89545000D02*
X119550000Y-90960000D01*
X119550000Y-93040000D02*
X119550000Y-94455000D01*
X119590000Y-89558000D02*
X119590000Y-90960000D01*
X119590000Y-93040000D02*
X119590000Y-94442000D01*
X119630000Y-89572000D02*
X119630000Y-90960000D01*
X119630000Y-93040000D02*
X119630000Y-94428000D01*
X119670000Y-89587000D02*
X119670000Y-90960000D01*
X119670000Y-93040000D02*
X119670000Y-94413000D01*
X119710000Y-89602000D02*
X119710000Y-90960000D01*
X119710000Y-93040000D02*
X119710000Y-94398000D01*
X119750000Y-89618000D02*
X119750000Y-90960000D01*
X119750000Y-93040000D02*
X119750000Y-94382000D01*
X119790000Y-89635000D02*
X119790000Y-90960000D01*
X119790000Y-93040000D02*
X119790000Y-94365000D01*
X119830000Y-89653000D02*
X119830000Y-90960000D01*
X119830000Y-93040000D02*
X119830000Y-94347000D01*
X119870000Y-89671000D02*
X119870000Y-90960000D01*
X119870000Y-93040000D02*
X119870000Y-94329000D01*
X119910000Y-89691000D02*
X119910000Y-90960000D01*
X119910000Y-93040000D02*
X119910000Y-94309000D01*
X119950000Y-89711000D02*
X119950000Y-90960000D01*
X119950000Y-93040000D02*
X119950000Y-94289000D01*
X119990000Y-89732000D02*
X119990000Y-90960000D01*
X119990000Y-93040000D02*
X119990000Y-94268000D01*
X120030000Y-89754000D02*
X120030000Y-90960000D01*
X120030000Y-93040000D02*
X120030000Y-94246000D01*
X120070000Y-89777000D02*
X120070000Y-90960000D01*
X120070000Y-93040000D02*
X120070000Y-94223000D01*
X120110000Y-89801000D02*
X120110000Y-90960000D01*
X120110000Y-93040000D02*
X120110000Y-94199000D01*
X120150000Y-89825000D02*
X120150000Y-90960000D01*
X120150000Y-93040000D02*
X120150000Y-94175000D01*
X120190000Y-89851000D02*
X120190000Y-90960000D01*
X120190000Y-93040000D02*
X120190000Y-94149000D01*
X120230000Y-89878000D02*
X120230000Y-90960000D01*
X120230000Y-93040000D02*
X120230000Y-94122000D01*
X120270000Y-89906000D02*
X120270000Y-90960000D01*
X120270000Y-93040000D02*
X120270000Y-94094000D01*
X120310000Y-89935000D02*
X120310000Y-90960000D01*
X120310000Y-93040000D02*
X120310000Y-94065000D01*
X120350000Y-89965000D02*
X120350000Y-90960000D01*
X120350000Y-93040000D02*
X120350000Y-94035000D01*
X120390000Y-89997000D02*
X120390000Y-90960000D01*
X120390000Y-93040000D02*
X120390000Y-94003000D01*
X120430000Y-90030000D02*
X120430000Y-90960000D01*
X120430000Y-93040000D02*
X120430000Y-93970000D01*
X120470000Y-90064000D02*
X120470000Y-90960000D01*
X120470000Y-93040000D02*
X120470000Y-93936000D01*
X120510000Y-90099000D02*
X120510000Y-90960000D01*
X120510000Y-93040000D02*
X120510000Y-93901000D01*
X120550000Y-90136000D02*
X120550000Y-90960000D01*
X120550000Y-93040000D02*
X120550000Y-93864000D01*
X120590000Y-90175000D02*
X120590000Y-90960000D01*
X120590000Y-93040000D02*
X120590000Y-93825000D01*
X120630000Y-90215000D02*
X120630000Y-90960000D01*
X120630000Y-93040000D02*
X120630000Y-93785000D01*
X120670000Y-90257000D02*
X120670000Y-90960000D01*
X120670000Y-93040000D02*
X120670000Y-93743000D01*
X120710000Y-90301000D02*
X120710000Y-90960000D01*
X120710000Y-93040000D02*
X120710000Y-93699000D01*
X120750000Y-90348000D02*
X120750000Y-90960000D01*
X120750000Y-93040000D02*
X120750000Y-93652000D01*
X120790000Y-90396000D02*
X120790000Y-90960000D01*
X120790000Y-93040000D02*
X120790000Y-93604000D01*
X120830000Y-90447000D02*
X120830000Y-90960000D01*
X120830000Y-93040000D02*
X120830000Y-93553000D01*
X120870000Y-90501000D02*
X120870000Y-90960000D01*
X120870000Y-93040000D02*
X120870000Y-93499000D01*
X120910000Y-90557000D02*
X120910000Y-90960000D01*
X120910000Y-93040000D02*
X120910000Y-93443000D01*
X120950000Y-90617000D02*
X120950000Y-90960000D01*
X120950000Y-93040000D02*
X120950000Y-93383000D01*
X120990000Y-90681000D02*
X120990000Y-90960000D01*
X120990000Y-93040000D02*
X120990000Y-93319000D01*
X121030000Y-90749000D02*
X121030000Y-90960000D01*
X121030000Y-93040000D02*
X121030000Y-93251000D01*
X121070000Y-90823000D02*
X121070000Y-93177000D01*
X121110000Y-90902000D02*
X121110000Y-93098000D01*
X121150000Y-90989000D02*
X121150000Y-93011000D01*
X121190000Y-91086000D02*
X121190000Y-92914000D01*
X121230000Y-91195000D02*
X121230000Y-92805000D01*
X121270000Y-91323000D02*
X121270000Y-92677000D01*
X121310000Y-91483000D02*
X121310000Y-92517000D01*
X121350000Y-91717000D02*
X121350000Y-92283000D01*
X121370000Y-92000000D02*
G75*
G02*
X116130000Y-92000000I-2620000J0D01*
G01*
X116130000Y-92000000D02*
G75*
G02*
X121370000Y-92000000I2620000J0D01*
G01*
M02*
