%TF.GenerationSoftware,KiCad,Pcbnew,9.0.1*%
%TF.CreationDate,2025-08-21T16:33:30-04:00*%
%TF.ProjectId,SensorBox,53656e73-6f72-4426-9f78-2e6b69636164,rev?*%
%TF.SameCoordinates,Original*%
%TF.FileFunction,Soldermask,Bot*%
%TF.FilePolarity,Negative*%
%FSLAX46Y46*%
G04 Gerber Fmt 4.6, Leading zero omitted, Abs format (unit mm)*
G04 Created by KiCad (PCBNEW 9.0.1) date 2025-08-21 16:33:30*
%MOMM*%
%LPD*%
G01*
G04 APERTURE LIST*
G04 Aperture macros list*
%AMRoundRect*
0 Rectangle with rounded corners*
0 $1 Rounding radius*
0 $2 $3 $4 $5 $6 $7 $8 $9 X,Y pos of 4 corners*
0 Add a 4 corners polygon primitive as box body*
4,1,4,$2,$3,$4,$5,$6,$7,$8,$9,$2,$3,0*
0 Add four circle primitives for the rounded corners*
1,1,$1+$1,$2,$3*
1,1,$1+$1,$4,$5*
1,1,$1+$1,$6,$7*
1,1,$1+$1,$8,$9*
0 Add four rect primitives between the rounded corners*
20,1,$1+$1,$2,$3,$4,$5,0*
20,1,$1+$1,$4,$5,$6,$7,0*
20,1,$1+$1,$6,$7,$8,$9,0*
20,1,$1+$1,$8,$9,$2,$3,0*%
%AMFreePoly0*
4,1,37,0.603843,0.796157,0.639018,0.796157,0.711114,0.766294,0.766294,0.711114,0.796157,0.639018,0.796157,0.603843,0.800000,0.600000,0.800000,-0.600000,0.796157,-0.603843,0.796157,-0.639018,0.766294,-0.711114,0.711114,-0.766294,0.639018,-0.796157,0.603843,-0.796157,0.600000,-0.800000,0.000000,-0.800000,0.000000,-0.796148,-0.078414,-0.796148,-0.232228,-0.765552,-0.377117,-0.705537,
-0.507515,-0.618408,-0.618408,-0.507515,-0.705537,-0.377117,-0.765552,-0.232228,-0.796148,-0.078414,-0.796148,0.078414,-0.765552,0.232228,-0.705537,0.377117,-0.618408,0.507515,-0.507515,0.618408,-0.377117,0.705537,-0.232228,0.765552,-0.078414,0.796148,0.000000,0.796148,0.000000,0.800000,0.600000,0.800000,0.603843,0.796157,0.603843,0.796157,$1*%
%AMFreePoly1*
4,1,37,0.000000,0.796148,0.078414,0.796148,0.232228,0.765552,0.377117,0.705537,0.507515,0.618408,0.618408,0.507515,0.705537,0.377117,0.765552,0.232228,0.796148,0.078414,0.796148,-0.078414,0.765552,-0.232228,0.705537,-0.377117,0.618408,-0.507515,0.507515,-0.618408,0.377117,-0.705537,0.232228,-0.765552,0.078414,-0.796148,0.000000,-0.796148,0.000000,-0.800000,-0.600000,-0.800000,
-0.603843,-0.796157,-0.639018,-0.796157,-0.711114,-0.766294,-0.766294,-0.711114,-0.796157,-0.639018,-0.796157,-0.603843,-0.800000,-0.600000,-0.800000,0.600000,-0.796157,0.603843,-0.796157,0.639018,-0.766294,0.711114,-0.711114,0.766294,-0.639018,0.796157,-0.603843,0.796157,-0.600000,0.800000,0.000000,0.800000,0.000000,0.796148,0.000000,0.796148,$1*%
G04 Aperture macros list end*
%ADD10C,1.600000*%
%ADD11R,1.600000X1.600000*%
%ADD12C,3.600000*%
%ADD13C,5.600000*%
%ADD14C,2.200000*%
%ADD15C,1.850000*%
%ADD16RoundRect,0.200000X-0.600000X-0.600000X0.600000X-0.600000X0.600000X0.600000X-0.600000X0.600000X0*%
%ADD17FreePoly0,0.000000*%
%ADD18FreePoly1,0.000000*%
%ADD19C,1.700000*%
%ADD20R,1.700000X1.700000*%
%ADD21RoundRect,0.500000X-0.350000X-0.350000X0.350000X-0.350000X0.350000X0.350000X-0.350000X0.350000X0*%
G04 APERTURE END LIST*
D10*
%TO.C,C1*%
X97000000Y-74000000D03*
D11*
X99000000Y-74000000D03*
%TD*%
D12*
%TO.C,H4*%
X98000000Y-123500000D03*
D13*
X98000000Y-123500000D03*
%TD*%
D12*
%TO.C,H3*%
X98000000Y-61000000D03*
D13*
X98000000Y-61000000D03*
%TD*%
D12*
%TO.C,H2*%
X141000000Y-123500000D03*
D13*
X141000000Y-123500000D03*
%TD*%
D12*
%TO.C,H1*%
X141000000Y-61000000D03*
D13*
X141000000Y-61000000D03*
%TD*%
D14*
%TO.C,A1*%
X111585000Y-68530000D03*
D15*
X111885000Y-71560000D03*
X116735000Y-71560000D03*
D14*
X117035000Y-68530000D03*
D16*
X105420000Y-68400000D03*
D10*
X105420000Y-70940000D03*
D17*
X105420000Y-73480000D03*
D10*
X105420000Y-76020000D03*
X105420000Y-78560000D03*
X105420000Y-81100000D03*
X105420000Y-83640000D03*
D17*
X105420000Y-86180000D03*
D10*
X105420000Y-88720000D03*
X105420000Y-91260000D03*
X105420000Y-93800000D03*
X105420000Y-96340000D03*
D17*
X105420000Y-98880000D03*
D10*
X105420000Y-101420000D03*
X105420000Y-103960000D03*
X105420000Y-106500000D03*
X105420000Y-109040000D03*
D17*
X105420000Y-111580000D03*
D10*
X105420000Y-114120000D03*
X105420000Y-116660000D03*
X123200000Y-116660000D03*
X123200000Y-114120000D03*
D18*
X123200000Y-111580000D03*
D10*
X123200000Y-109040000D03*
X123200000Y-106500000D03*
X123200000Y-103960000D03*
X123200000Y-101420000D03*
D18*
X123200000Y-98880000D03*
D10*
X123200000Y-96340000D03*
X123200000Y-93800000D03*
X123200000Y-91260000D03*
X123200000Y-88720000D03*
D18*
X123200000Y-86180000D03*
D10*
X123200000Y-83640000D03*
X123200000Y-81100000D03*
X123200000Y-78560000D03*
X123200000Y-76020000D03*
D18*
X123200000Y-73480000D03*
D10*
X123200000Y-70940000D03*
X123200000Y-68400000D03*
%TD*%
D19*
%TO.C,J2*%
X130000000Y-68880000D03*
D20*
X130000000Y-71420000D03*
D19*
X130000000Y-73960000D03*
X130000000Y-76500000D03*
%TD*%
%TO.C,J3*%
X130000000Y-83760000D03*
D20*
X130000000Y-86300000D03*
D19*
X130000000Y-88840000D03*
X130000000Y-91380000D03*
X130000000Y-93920000D03*
X130000000Y-96460000D03*
D21*
X130000000Y-99000000D03*
X130000000Y-101540000D03*
%TD*%
D19*
%TO.C,J1*%
X130000000Y-109460000D03*
X130000000Y-112000000D03*
D20*
X130000000Y-114540000D03*
D19*
X130000000Y-117080000D03*
%TD*%
M02*
