%TF.GenerationSoftware,KiCad,Pcbnew,9.0.1*%
%TF.CreationDate,2025-08-21T16:33:30-04:00*%
%TF.ProjectId,SensorBox,53656e73-6f72-4426-9f78-2e6b69636164,rev?*%
%TF.SameCoordinates,Original*%
%TF.FileFunction,Legend,Top*%
%TF.FilePolarity,Positive*%
%FSLAX46Y46*%
G04 Gerber Fmt 4.6, Leading zero omitted, Abs format (unit mm)*
G04 Created by KiCad (PCBNEW 9.0.1) date 2025-08-21 16:33:30*
%MOMM*%
%LPD*%
G01*
G04 APERTURE LIST*
%ADD10C,0.150000*%
%ADD11C,0.100000*%
%ADD12C,0.120000*%
G04 APERTURE END LIST*
D10*
X97833333Y-70609580D02*
X97785714Y-70657200D01*
X97785714Y-70657200D02*
X97642857Y-70704819D01*
X97642857Y-70704819D02*
X97547619Y-70704819D01*
X97547619Y-70704819D02*
X97404762Y-70657200D01*
X97404762Y-70657200D02*
X97309524Y-70561961D01*
X97309524Y-70561961D02*
X97261905Y-70466723D01*
X97261905Y-70466723D02*
X97214286Y-70276247D01*
X97214286Y-70276247D02*
X97214286Y-70133390D01*
X97214286Y-70133390D02*
X97261905Y-69942914D01*
X97261905Y-69942914D02*
X97309524Y-69847676D01*
X97309524Y-69847676D02*
X97404762Y-69752438D01*
X97404762Y-69752438D02*
X97547619Y-69704819D01*
X97547619Y-69704819D02*
X97642857Y-69704819D01*
X97642857Y-69704819D02*
X97785714Y-69752438D01*
X97785714Y-69752438D02*
X97833333Y-69800057D01*
X98785714Y-70704819D02*
X98214286Y-70704819D01*
X98500000Y-70704819D02*
X98500000Y-69704819D01*
X98500000Y-69704819D02*
X98404762Y-69847676D01*
X98404762Y-69847676D02*
X98309524Y-69942914D01*
X98309524Y-69942914D02*
X98214286Y-69990533D01*
X97238095Y-120154819D02*
X97238095Y-119154819D01*
X97238095Y-119631009D02*
X97809523Y-119631009D01*
X97809523Y-120154819D02*
X97809523Y-119154819D01*
X98714285Y-119488152D02*
X98714285Y-120154819D01*
X98476190Y-119107200D02*
X98238095Y-119821485D01*
X98238095Y-119821485D02*
X98857142Y-119821485D01*
X97238095Y-57654819D02*
X97238095Y-56654819D01*
X97238095Y-57131009D02*
X97809523Y-57131009D01*
X97809523Y-57654819D02*
X97809523Y-56654819D01*
X98190476Y-56654819D02*
X98809523Y-56654819D01*
X98809523Y-56654819D02*
X98476190Y-57035771D01*
X98476190Y-57035771D02*
X98619047Y-57035771D01*
X98619047Y-57035771D02*
X98714285Y-57083390D01*
X98714285Y-57083390D02*
X98761904Y-57131009D01*
X98761904Y-57131009D02*
X98809523Y-57226247D01*
X98809523Y-57226247D02*
X98809523Y-57464342D01*
X98809523Y-57464342D02*
X98761904Y-57559580D01*
X98761904Y-57559580D02*
X98714285Y-57607200D01*
X98714285Y-57607200D02*
X98619047Y-57654819D01*
X98619047Y-57654819D02*
X98333333Y-57654819D01*
X98333333Y-57654819D02*
X98238095Y-57607200D01*
X98238095Y-57607200D02*
X98190476Y-57559580D01*
X140238095Y-120154819D02*
X140238095Y-119154819D01*
X140238095Y-119631009D02*
X140809523Y-119631009D01*
X140809523Y-120154819D02*
X140809523Y-119154819D01*
X141238095Y-119250057D02*
X141285714Y-119202438D01*
X141285714Y-119202438D02*
X141380952Y-119154819D01*
X141380952Y-119154819D02*
X141619047Y-119154819D01*
X141619047Y-119154819D02*
X141714285Y-119202438D01*
X141714285Y-119202438D02*
X141761904Y-119250057D01*
X141761904Y-119250057D02*
X141809523Y-119345295D01*
X141809523Y-119345295D02*
X141809523Y-119440533D01*
X141809523Y-119440533D02*
X141761904Y-119583390D01*
X141761904Y-119583390D02*
X141190476Y-120154819D01*
X141190476Y-120154819D02*
X141809523Y-120154819D01*
X140238095Y-57654819D02*
X140238095Y-56654819D01*
X140238095Y-57131009D02*
X140809523Y-57131009D01*
X140809523Y-57654819D02*
X140809523Y-56654819D01*
X141809523Y-57654819D02*
X141238095Y-57654819D01*
X141523809Y-57654819D02*
X141523809Y-56654819D01*
X141523809Y-56654819D02*
X141428571Y-56797676D01*
X141428571Y-56797676D02*
X141333333Y-56892914D01*
X141333333Y-56892914D02*
X141238095Y-56940533D01*
X126346660Y-117464104D02*
X126822850Y-117464104D01*
X126251422Y-117749819D02*
X126584755Y-116749819D01*
X126584755Y-116749819D02*
X126918088Y-117749819D01*
X127775231Y-117749819D02*
X127203803Y-117749819D01*
X127489517Y-117749819D02*
X127489517Y-116749819D01*
X127489517Y-116749819D02*
X127394279Y-116892676D01*
X127394279Y-116892676D02*
X127299041Y-116987914D01*
X127299041Y-116987914D02*
X127203803Y-117035533D01*
D11*
X129666666Y-70377419D02*
X129666666Y-71091704D01*
X129666666Y-71091704D02*
X129619047Y-71234561D01*
X129619047Y-71234561D02*
X129523809Y-71329800D01*
X129523809Y-71329800D02*
X129380952Y-71377419D01*
X129380952Y-71377419D02*
X129285714Y-71377419D01*
X130095238Y-70472657D02*
X130142857Y-70425038D01*
X130142857Y-70425038D02*
X130238095Y-70377419D01*
X130238095Y-70377419D02*
X130476190Y-70377419D01*
X130476190Y-70377419D02*
X130571428Y-70425038D01*
X130571428Y-70425038D02*
X130619047Y-70472657D01*
X130619047Y-70472657D02*
X130666666Y-70567895D01*
X130666666Y-70567895D02*
X130666666Y-70663133D01*
X130666666Y-70663133D02*
X130619047Y-70805990D01*
X130619047Y-70805990D02*
X130047619Y-71377419D01*
X130047619Y-71377419D02*
X130666666Y-71377419D01*
X129666666Y-110957419D02*
X129666666Y-111671704D01*
X129666666Y-111671704D02*
X129619047Y-111814561D01*
X129619047Y-111814561D02*
X129523809Y-111909800D01*
X129523809Y-111909800D02*
X129380952Y-111957419D01*
X129380952Y-111957419D02*
X129285714Y-111957419D01*
X130666666Y-111957419D02*
X130095238Y-111957419D01*
X130380952Y-111957419D02*
X130380952Y-110957419D01*
X130380952Y-110957419D02*
X130285714Y-111100276D01*
X130285714Y-111100276D02*
X130190476Y-111195514D01*
X130190476Y-111195514D02*
X130095238Y-111243133D01*
D12*
%TO.C,C1*%
X95195225Y-72525000D02*
X95695225Y-72525000D01*
X95445225Y-72275000D02*
X95445225Y-72775000D01*
X98000000Y-71420000D02*
X98000000Y-72960000D01*
X98000000Y-75040000D02*
X98000000Y-76580000D01*
X98040000Y-71420000D02*
X98040000Y-72960000D01*
X98040000Y-75040000D02*
X98040000Y-76580000D01*
X98080000Y-71421000D02*
X98080000Y-72960000D01*
X98080000Y-75040000D02*
X98080000Y-76579000D01*
X98120000Y-71423000D02*
X98120000Y-72960000D01*
X98120000Y-75040000D02*
X98120000Y-76577000D01*
X98160000Y-71425000D02*
X98160000Y-72960000D01*
X98160000Y-75040000D02*
X98160000Y-76575000D01*
X98200000Y-71428000D02*
X98200000Y-72960000D01*
X98200000Y-75040000D02*
X98200000Y-76572000D01*
X98240000Y-71431000D02*
X98240000Y-72960000D01*
X98240000Y-75040000D02*
X98240000Y-76569000D01*
X98280000Y-71435000D02*
X98280000Y-72960000D01*
X98280000Y-75040000D02*
X98280000Y-76565000D01*
X98320000Y-71440000D02*
X98320000Y-72960000D01*
X98320000Y-75040000D02*
X98320000Y-76560000D01*
X98360000Y-71445000D02*
X98360000Y-72960000D01*
X98360000Y-75040000D02*
X98360000Y-76555000D01*
X98400000Y-71451000D02*
X98400000Y-72960000D01*
X98400000Y-75040000D02*
X98400000Y-76549000D01*
X98440000Y-71457000D02*
X98440000Y-72960000D01*
X98440000Y-75040000D02*
X98440000Y-76543000D01*
X98480000Y-71464000D02*
X98480000Y-72960000D01*
X98480000Y-75040000D02*
X98480000Y-76536000D01*
X98520000Y-71472000D02*
X98520000Y-72960000D01*
X98520000Y-75040000D02*
X98520000Y-76528000D01*
X98560000Y-71481000D02*
X98560000Y-72960000D01*
X98560000Y-75040000D02*
X98560000Y-76519000D01*
X98600000Y-71490000D02*
X98600000Y-72960000D01*
X98600000Y-75040000D02*
X98600000Y-76510000D01*
X98640000Y-71499000D02*
X98640000Y-72960000D01*
X98640000Y-75040000D02*
X98640000Y-76501000D01*
X98680000Y-71510000D02*
X98680000Y-72960000D01*
X98680000Y-75040000D02*
X98680000Y-76490000D01*
X98720000Y-71521000D02*
X98720000Y-72960000D01*
X98720000Y-75040000D02*
X98720000Y-76479000D01*
X98760000Y-71533000D02*
X98760000Y-72960000D01*
X98760000Y-75040000D02*
X98760000Y-76467000D01*
X98800000Y-71545000D02*
X98800000Y-72960000D01*
X98800000Y-75040000D02*
X98800000Y-76455000D01*
X98840000Y-71558000D02*
X98840000Y-72960000D01*
X98840000Y-75040000D02*
X98840000Y-76442000D01*
X98880000Y-71572000D02*
X98880000Y-72960000D01*
X98880000Y-75040000D02*
X98880000Y-76428000D01*
X98920000Y-71587000D02*
X98920000Y-72960000D01*
X98920000Y-75040000D02*
X98920000Y-76413000D01*
X98960000Y-71602000D02*
X98960000Y-72960000D01*
X98960000Y-75040000D02*
X98960000Y-76398000D01*
X99000000Y-71618000D02*
X99000000Y-72960000D01*
X99000000Y-75040000D02*
X99000000Y-76382000D01*
X99040000Y-71635000D02*
X99040000Y-72960000D01*
X99040000Y-75040000D02*
X99040000Y-76365000D01*
X99080000Y-71653000D02*
X99080000Y-72960000D01*
X99080000Y-75040000D02*
X99080000Y-76347000D01*
X99120000Y-71671000D02*
X99120000Y-72960000D01*
X99120000Y-75040000D02*
X99120000Y-76329000D01*
X99160000Y-71691000D02*
X99160000Y-72960000D01*
X99160000Y-75040000D02*
X99160000Y-76309000D01*
X99200000Y-71711000D02*
X99200000Y-72960000D01*
X99200000Y-75040000D02*
X99200000Y-76289000D01*
X99240000Y-71732000D02*
X99240000Y-72960000D01*
X99240000Y-75040000D02*
X99240000Y-76268000D01*
X99280000Y-71754000D02*
X99280000Y-72960000D01*
X99280000Y-75040000D02*
X99280000Y-76246000D01*
X99320000Y-71777000D02*
X99320000Y-72960000D01*
X99320000Y-75040000D02*
X99320000Y-76223000D01*
X99360000Y-71801000D02*
X99360000Y-72960000D01*
X99360000Y-75040000D02*
X99360000Y-76199000D01*
X99400000Y-71825000D02*
X99400000Y-72960000D01*
X99400000Y-75040000D02*
X99400000Y-76175000D01*
X99440000Y-71851000D02*
X99440000Y-72960000D01*
X99440000Y-75040000D02*
X99440000Y-76149000D01*
X99480000Y-71878000D02*
X99480000Y-72960000D01*
X99480000Y-75040000D02*
X99480000Y-76122000D01*
X99520000Y-71906000D02*
X99520000Y-72960000D01*
X99520000Y-75040000D02*
X99520000Y-76094000D01*
X99560000Y-71935000D02*
X99560000Y-72960000D01*
X99560000Y-75040000D02*
X99560000Y-76065000D01*
X99600000Y-71965000D02*
X99600000Y-72960000D01*
X99600000Y-75040000D02*
X99600000Y-76035000D01*
X99640000Y-71997000D02*
X99640000Y-72960000D01*
X99640000Y-75040000D02*
X99640000Y-76003000D01*
X99680000Y-72030000D02*
X99680000Y-72960000D01*
X99680000Y-75040000D02*
X99680000Y-75970000D01*
X99720000Y-72064000D02*
X99720000Y-72960000D01*
X99720000Y-75040000D02*
X99720000Y-75936000D01*
X99760000Y-72099000D02*
X99760000Y-72960000D01*
X99760000Y-75040000D02*
X99760000Y-75901000D01*
X99800000Y-72136000D02*
X99800000Y-72960000D01*
X99800000Y-75040000D02*
X99800000Y-75864000D01*
X99840000Y-72175000D02*
X99840000Y-72960000D01*
X99840000Y-75040000D02*
X99840000Y-75825000D01*
X99880000Y-72215000D02*
X99880000Y-72960000D01*
X99880000Y-75040000D02*
X99880000Y-75785000D01*
X99920000Y-72257000D02*
X99920000Y-72960000D01*
X99920000Y-75040000D02*
X99920000Y-75743000D01*
X99960000Y-72301000D02*
X99960000Y-72960000D01*
X99960000Y-75040000D02*
X99960000Y-75699000D01*
X100000000Y-72348000D02*
X100000000Y-72960000D01*
X100000000Y-75040000D02*
X100000000Y-75652000D01*
X100040000Y-72396000D02*
X100040000Y-75604000D01*
X100080000Y-72447000D02*
X100080000Y-75553000D01*
X100120000Y-72501000D02*
X100120000Y-75499000D01*
X100160000Y-72557000D02*
X100160000Y-75443000D01*
X100200000Y-72617000D02*
X100200000Y-75383000D01*
X100240000Y-72681000D02*
X100240000Y-75319000D01*
X100280000Y-72749000D02*
X100280000Y-75251000D01*
X100320000Y-72823000D02*
X100320000Y-75177000D01*
X100360000Y-72902000D02*
X100360000Y-75098000D01*
X100400000Y-72989000D02*
X100400000Y-75011000D01*
X100440000Y-73086000D02*
X100440000Y-74914000D01*
X100480000Y-73195000D02*
X100480000Y-74805000D01*
X100520000Y-73323000D02*
X100520000Y-74677000D01*
X100560000Y-73483000D02*
X100560000Y-74517000D01*
X100600000Y-73717000D02*
X100600000Y-74283000D01*
X100620000Y-74000000D02*
G75*
G02*
X95380000Y-74000000I-2620000J0D01*
G01*
X95380000Y-74000000D02*
G75*
G02*
X100620000Y-74000000I2620000J0D01*
G01*
%TO.C,A1*%
X103700000Y-69460000D02*
X103220000Y-69460000D01*
X103700000Y-69460000D02*
X103700000Y-69880000D01*
X103700000Y-72000000D02*
X103700000Y-72420000D01*
X103700000Y-74540000D02*
X103700000Y-74960000D01*
X103700000Y-77080000D02*
X103700000Y-77500000D01*
X103700000Y-79620000D02*
X103700000Y-80040000D01*
X103700000Y-82160000D02*
X103700000Y-82580000D01*
X103700000Y-84700000D02*
X103700000Y-85120000D01*
X103700000Y-87240000D02*
X103700000Y-87660000D01*
X103700000Y-89780000D02*
X103700000Y-90200000D01*
X103700000Y-92320000D02*
X103700000Y-92740000D01*
X103700000Y-94860000D02*
X103700000Y-95280000D01*
X103700000Y-97400000D02*
X103700000Y-97820000D01*
X103700000Y-99940000D02*
X103700000Y-100360000D01*
X103700000Y-102480000D02*
X103700000Y-102900000D01*
X103700000Y-105020000D02*
X103700000Y-105440000D01*
X103700000Y-107560000D02*
X103700000Y-107980000D01*
X103700000Y-110100000D02*
X103700000Y-110520000D01*
X103700000Y-112640000D02*
X103700000Y-113060000D01*
X103700000Y-115180000D02*
X103700000Y-115600000D01*
X103730324Y-67340000D02*
X103220000Y-67340000D01*
X104040000Y-67340063D02*
X104040000Y-66983000D01*
X104040000Y-69460000D02*
X104040000Y-69880000D01*
X104040000Y-72000000D02*
X104040000Y-72420000D01*
X104040000Y-74540000D02*
X104040000Y-74960000D01*
X104040000Y-77080000D02*
X104040000Y-77500000D01*
X104040000Y-79620000D02*
X104040000Y-80040000D01*
X104040000Y-82160000D02*
X104040000Y-82580000D01*
X104040000Y-84700000D02*
X104040000Y-85120000D01*
X104040000Y-87240000D02*
X104040000Y-87660000D01*
X104040000Y-89780000D02*
X104040000Y-90200000D01*
X104040000Y-92320000D02*
X104040000Y-92740000D01*
X104040000Y-94860000D02*
X104040000Y-95280000D01*
X104040000Y-97400000D02*
X104040000Y-97820000D01*
X104040000Y-99940000D02*
X104040000Y-100360000D01*
X104040000Y-102480000D02*
X104040000Y-102900000D01*
X104040000Y-105020000D02*
X104040000Y-105440000D01*
X104040000Y-107560000D02*
X104040000Y-107980000D01*
X104040000Y-110100000D02*
X104040000Y-110520000D01*
X104040000Y-112640000D02*
X104040000Y-113060000D01*
X104040000Y-115180000D02*
X104040000Y-115600000D01*
X104040000Y-117719937D02*
X104040000Y-118077000D01*
X104310000Y-66920000D02*
X106800000Y-66920000D01*
X104310000Y-118140000D02*
X108147939Y-118140000D01*
X106800000Y-66920000D02*
X106800000Y-67833520D01*
X106800000Y-66920000D02*
X108147940Y-66920000D01*
X106800000Y-70226480D02*
X106800000Y-114833520D01*
X106800000Y-117226480D02*
X106800000Y-118140000D01*
X109072061Y-66920000D02*
X110075000Y-66920000D01*
X110075000Y-66920000D02*
X118545000Y-66920000D01*
X110410000Y-66920000D02*
X110410000Y-67836000D01*
X110410000Y-70224000D02*
X110410000Y-71440000D01*
X110410000Y-71440000D02*
X110706090Y-71440000D01*
X110710000Y-118140000D02*
X109072061Y-118140000D01*
X113063910Y-71440000D02*
X115556090Y-71440000D01*
X117910000Y-118140000D02*
X110710000Y-118140000D01*
X117913910Y-71440000D02*
X118210000Y-71440000D01*
X118210000Y-66920000D02*
X118210000Y-67836000D01*
X118210000Y-70224000D02*
X118210000Y-71440000D01*
X118545000Y-66920000D02*
X119547939Y-66920000D01*
X119547939Y-118140000D02*
X117910000Y-118140000D01*
X120472061Y-66920000D02*
X121820000Y-66920000D01*
X120472061Y-118140000D02*
X124310000Y-118140000D01*
X121820000Y-66920000D02*
X121820000Y-67833520D01*
X121820000Y-70226480D02*
X121820000Y-114833520D01*
X121820000Y-117226480D02*
X121820000Y-118140000D01*
X124310000Y-66920000D02*
X121820000Y-66920000D01*
X124580000Y-67340063D02*
X124580000Y-66983000D01*
X124580000Y-69460000D02*
X124580000Y-69880000D01*
X124580000Y-72000000D02*
X124580000Y-72420000D01*
X124580000Y-74540000D02*
X124580000Y-74960000D01*
X124580000Y-77080000D02*
X124580000Y-77500000D01*
X124580000Y-79620000D02*
X124580000Y-80040000D01*
X124580000Y-82160000D02*
X124580000Y-82580000D01*
X124580000Y-84700000D02*
X124580000Y-85120000D01*
X124580000Y-87240000D02*
X124580000Y-87660000D01*
X124580000Y-89780000D02*
X124580000Y-90200000D01*
X124580000Y-92320000D02*
X124580000Y-92740000D01*
X124580000Y-94860000D02*
X124580000Y-95280000D01*
X124580000Y-97400000D02*
X124580000Y-97820000D01*
X124580000Y-99940000D02*
X124580000Y-100360000D01*
X124580000Y-102480000D02*
X124580000Y-102900000D01*
X124580000Y-105020000D02*
X124580000Y-105440000D01*
X124580000Y-107560000D02*
X124580000Y-107980000D01*
X124580000Y-110100000D02*
X124580000Y-110520000D01*
X124580000Y-112640000D02*
X124580000Y-113060000D01*
X124580000Y-115180000D02*
X124580000Y-115600000D01*
X124580000Y-117719937D02*
X124580000Y-118077000D01*
X124920000Y-69460000D02*
X124920000Y-69880000D01*
X124920000Y-72000000D02*
X124920000Y-72420000D01*
X124920000Y-74540000D02*
X124920000Y-74960000D01*
X124920000Y-77080000D02*
X124920000Y-77500000D01*
X124920000Y-79620000D02*
X124920000Y-80040000D01*
X124920000Y-82160000D02*
X124920000Y-82580000D01*
X124920000Y-84700000D02*
X124920000Y-85120000D01*
X124920000Y-87240000D02*
X124920000Y-87660000D01*
X124920000Y-89780000D02*
X124920000Y-90200000D01*
X124920000Y-92320000D02*
X124920000Y-92740000D01*
X124920000Y-94860000D02*
X124920000Y-95280000D01*
X124920000Y-97400000D02*
X124920000Y-97820000D01*
X124920000Y-99940000D02*
X124920000Y-100360000D01*
X124920000Y-102480000D02*
X124920000Y-102900000D01*
X124920000Y-105020000D02*
X124920000Y-105440000D01*
X124920000Y-107560000D02*
X124920000Y-107980000D01*
X124920000Y-110100000D02*
X124920000Y-110520000D01*
X124920000Y-112640000D02*
X124920000Y-113060000D01*
X124920000Y-115180000D02*
X124920000Y-115600000D01*
X103730324Y-67340000D02*
G75*
G02*
X104310000Y-66920000I579692J-190051D01*
G01*
X104310000Y-118140000D02*
G75*
G02*
X103730324Y-117719937I1J610002D01*
G01*
X124310000Y-66920000D02*
G75*
G02*
X124889676Y-67340063I0J-610000D01*
G01*
X124889676Y-117719937D02*
G75*
G02*
X124310000Y-118140069I-579676J189837D01*
G01*
%TD*%
M02*
